<svg width="17" height="20" viewBox="0 0 17 20" fill="none" xmlns="http://www.w3.org/2000/svg">
<path fill-rule="evenodd" clip-rule="evenodd" d="M11.599 0.713564L11.5709 5.94183C11.5701 6.08264 11.5082 6.2162 11.4013 6.30784C11.2469 6.44024 11.0262 6.4623 10.8486 6.3631L9.51607 5.619C9.07378 5.37203 8.53503 5.37219 8.09291 5.61944L0.864564 9.66173C0.700959 9.75323 0.599609 9.92601 0.599609 10.1135C0.599609 10.3012 0.701307 10.4743 0.865356 10.5656L2.25138 11.3375C2.71366 11.595 3.00027 12.0826 3.00027 12.6118V14.1911C3.00027 14.7139 3.28006 15.1967 3.73367 15.4566L10.8586 19.5393C11.0142 19.6284 11.2074 19.6186 11.3532 19.5145C11.4704 19.4308 11.5414 19.2969 11.5451 19.1531L11.591 17.3648C11.5969 17.1342 11.6696 16.9103 11.8003 16.7202C11.8888 16.5915 12.0017 16.4814 12.1327 16.3963L15.7094 14.0707C16.1232 13.8016 16.3729 13.3415 16.3729 12.8479V3.84096C16.3729 3.32785 16.1032 2.85248 15.6628 2.58914L12.0762 0.4446C11.9873 0.391475 11.8781 0.385334 11.7838 0.42817C11.6718 0.479089 11.5996 0.590514 11.599 0.713564ZM7.4842 8.067L7.40705 13.6301C7.4052 13.7634 7.50842 13.8868 7.67656 13.9523L10.6892 15.1271C11.041 15.2643 11.4771 15.0907 11.4809 14.8118L11.5579 9.15828C11.5597 9.02065 11.4496 8.89391 11.2727 8.83025L8.26031 7.74592C7.90898 7.61945 7.48799 7.79362 7.4842 8.067Z" fill="url(#paint0_radial_3332_2667)"/>
<defs>
<radialGradient id="paint0_radial_3332_2667" cx="0" cy="0" r="1" gradientUnits="userSpaceOnUse" gradientTransform="translate(9 -4.5) rotate(90.0009) scale(24.0999 23.8628)">
<stop stop-color="#0B0B0B"/>
<stop offset="1" stop-color="#A4A4A4"/>
</radialGradient>
</defs>
</svg>
