<svg width="13" height="12" viewBox="0 0 13 12" fill="none" xmlns="http://www.w3.org/2000/svg">
<g filter="url(#filter0_i_3342_35)">
<path d="M6.87891 0.489258C7.20998 0.489503 7.47837 0.757773 7.47852 1.08887C7.47852 1.42009 7.21007 1.68823 6.87891 1.68848H3.60449C2.73054 1.6885 2.02164 2.39757 2.02148 3.27148V8.72852C2.02172 9.60236 2.73059 10.3105 3.60449 10.3105H9.06152C9.93524 10.3103 10.6433 9.60223 10.6436 8.72852V5.4541C10.6437 5.12288 10.9129 4.85451 11.2441 4.85449C11.5752 4.85472 11.8436 5.12301 11.8438 5.4541V8.72852C11.8435 10.265 10.598 11.5105 9.06152 11.5107H3.60449C2.06785 11.5107 0.822503 10.2651 0.822266 8.72852V3.27148C0.822421 1.73482 2.0678 0.489279 3.60449 0.489258H6.87891ZM10.2598 0.589844C10.6532 0.589895 11.0304 0.746237 11.3086 1.02441C11.5866 1.30257 11.7431 1.67998 11.7432 2.07324C11.743 2.46645 11.5866 2.84499 11.3086 3.12305L6.90332 7.52734C6.83932 7.59116 6.75859 7.63726 6.6709 7.65918L4.81641 8.12305C4.64632 8.16535 4.46584 8.11505 4.3418 7.99121C4.21786 7.86726 4.1678 7.6867 4.20996 7.5166L4.67383 5.66211L4.69434 5.59766C4.71931 5.53504 4.75774 5.47775 4.80566 5.42969L9.21094 1.02441C9.48911 0.746357 9.86645 0.589894 10.2598 0.589844ZM5.61035 6.03809L5.38281 6.9502L6.29297 6.72266L9.04785 3.96777L8.36426 3.2832L5.61035 6.03809ZM10.2598 1.58984C10.1317 1.58989 10.0086 1.64092 9.91797 1.73145L9.07129 2.57617L9.75586 3.25977L10.6016 2.41504C10.6919 2.32454 10.743 2.20113 10.7432 2.07324C10.7431 1.9452 10.692 1.82206 10.6016 1.73145C10.5109 1.64081 10.388 1.58989 10.2598 1.58984Z" fill="url(#paint0_linear_3342_35)"/>
</g>
<defs>
<filter id="filter0_i_3342_35" x="0.333008" y="0.489258" width="12" height="11.6624" filterUnits="userSpaceOnUse" color-interpolation-filters="sRGB">
<feFlood flood-opacity="0" result="BackgroundImageFix"/>
<feBlend mode="normal" in="SourceGraphic" in2="BackgroundImageFix" result="shape"/>
<feColorMatrix in="SourceAlpha" type="matrix" values="0 0 0 0 0 0 0 0 0 0 0 0 0 0 0 0 0 0 127 0" result="hardAlpha"/>
<feOffset dy="0.640949"/>
<feGaussianBlur stdDeviation="0.473684"/>
<feComposite in2="hardAlpha" operator="arithmetic" k2="-1" k3="1"/>
<feColorMatrix type="matrix" values="0 0 0 0 0 0 0 0 0 0 0 0 0 0 0 0 0 0 0.6 0"/>
<feBlend mode="normal" in2="shape" result="effect1_innerShadow_3342_35"/>
</filter>
<linearGradient id="paint0_linear_3342_35" x1="6.30646" y1="-3.07652" x2="6.30646" y2="9.24161" gradientUnits="userSpaceOnUse">
<stop/>
<stop offset="1" stop-color="#666666"/>
</linearGradient>
</defs>
</svg>
