<svg width="15" height="15" viewBox="0 0 15 15" fill="none" xmlns="http://www.w3.org/2000/svg">
<path d="M4.2251 0.691238C5.7213 -0.00881306 7.41037 -0.1834 9.01807 0.196121C10.6258 0.575692 12.0583 1.4877 13.0835 2.78304C14.1085 4.07833 14.6665 5.68201 14.6665 7.33382V7.99983C14.6665 8.707 14.3852 9.38549 13.8853 9.88557C13.3852 10.3856 12.7067 10.6668 11.9995 10.6668C11.2924 10.6667 10.6138 10.3856 10.1138 9.88557C10.0076 9.77938 9.91341 9.66366 9.82764 9.5428C9.21707 10.2318 8.32642 10.6667 7.3335 10.6668C5.49266 10.6668 3.99969 9.17462 3.99951 7.33382C3.99958 5.49293 5.49259 3.99983 7.3335 3.99983C8.08389 3.99995 8.77645 4.24814 9.3335 4.66682L9.34717 4.53304C9.40911 4.22911 9.67736 3.99999 9.99951 3.99983C10.3676 3.99995 10.6664 4.29877 10.6665 4.66682V7.99983C10.6665 8.35345 10.8071 8.69314 11.0571 8.94319C11.3071 9.19304 11.6461 9.33373 11.9995 9.33382C12.3531 9.33376 12.6929 9.19319 12.9429 8.94319C13.1928 8.69316 13.3335 8.35337 13.3335 7.99983V7.33382C13.3335 5.98225 12.8763 4.67 12.0376 3.61018C11.1988 2.55042 10.0268 1.80453 8.71143 1.49397C7.39618 1.18355 6.01457 1.32658 4.79053 1.89925C3.56637 2.47206 2.57078 3.44139 1.96631 4.65022C1.36198 5.85895 1.18339 7.23654 1.45947 8.5594C1.73573 9.88249 2.45106 11.0742 3.48877 11.9403C4.52643 12.8062 5.8262 13.2967 7.17725 13.3319C8.52829 13.3669 9.85189 12.9445 10.9331 12.1336C11.2276 11.9129 11.6458 11.9721 11.8667 12.2664C12.0875 12.5609 12.0273 12.9791 11.7329 13.2C10.4115 14.191 8.79423 14.7067 7.14307 14.6639C5.49167 14.621 3.90257 14.0222 2.63428 12.9637C1.36599 11.9052 0.492426 10.449 0.154785 8.83186C-0.182707 7.21492 0.0352173 5.53096 0.773926 4.05354C1.51273 2.57618 2.72898 1.39131 4.2251 0.691238ZM7.3335 5.33382C6.22897 5.33382 5.33356 6.22931 5.3335 7.33382C5.33367 8.43824 6.22903 9.33382 7.3335 9.33382C8.43771 9.33353 9.33332 8.43806 9.3335 7.33382C9.33343 6.22948 8.43778 5.33411 7.3335 5.33382Z" fill="black" fill-opacity="0.8"/>
</svg>
