<svg width="22" height="22" viewBox="0 0 22 22" fill="none" xmlns="http://www.w3.org/2000/svg">
<path d="M9 16L7 14L9 12M13 12L15 14L13 16M12 2H7.2C6.0799 2 5.51984 2 5.09202 2.21799C4.71569 2.40973 4.40973 2.71569 4.21799 3.09202C4 3.51984 4 4.0799 4 5.2V16.8C4 17.9201 4 18.4802 4.21799 18.908C4.40973 19.2843 4.71569 19.5903 5.09202 19.782C5.51984 20 6.0799 20 7.2 20H14.8C15.9201 20 16.4802 20 16.908 19.782C17.2843 19.5903 17.5903 19.2843 17.782 18.908C18 18.4802 18 17.9201 18 16.8V8M12 2L18 8M12 2V7C12 7.55228 12.4477 8 13 8H18" stroke="black" stroke-width="2" stroke-linecap="round" stroke-linejoin="round"/>
</svg>
