<svg width="11" height="10" viewBox="0 0 11 10" fill="none" xmlns="http://www.w3.org/2000/svg">
<path opacity="0.8" d="M5.54751 10C2.64964 10 0.5 7.9717 0.5 5C0.5 2.0283 2.64964 0 5.54751 0C8.44537 0 10.5 1.875 10.5 4.71698C10.5 6.52123 9.60926 7.71226 8.13658 7.71226C7.45962 7.71226 7.03207 7.41745 6.84204 6.92217C6.39074 7.52358 5.77316 7.71226 5.16746 7.71226C4.00356 7.71226 3.2791 7.15802 3.2791 6.19104C3.2791 5.27123 4.00356 4.78774 5.1437 4.57547L6.69952 4.28066V3.93868C6.69952 3.36085 6.33135 3.17217 5.64252 3.17217C5.06057 3.17217 4.39549 3.33726 4.38361 4.11557H3.46912C3.481 2.83019 4.57363 2.35849 5.64252 2.35849C6.96081 2.35849 7.59026 2.94811 7.59026 3.85613V6.06132C7.59026 6.74528 7.89905 6.88679 8.3266 6.88679C9.09857 6.88679 9.54988 5.97877 9.54988 4.71698C9.54988 2.35849 7.89905 0.849057 5.54751 0.849057C3.19596 0.849057 1.45012 2.52358 1.45012 5C1.45012 7.47641 3.19596 9.15094 5.54751 9.15094C6.42637 9.15094 7.24584 8.86792 7.99406 8.34906V9.35141C7.2696 9.76415 6.45012 10 5.54751 10ZM5.21496 6.89858C5.93943 6.89858 6.69952 6.50943 6.69952 5.55424V5.07075L5.28622 5.35377C4.63302 5.48349 4.22922 5.63679 4.22922 6.16745C4.22922 6.60377 4.50237 6.89858 5.21496 6.89858Z" fill="#2A273C" fill-opacity="0.8"/>
</svg>
