<svg width="12" height="12" viewBox="0 0 12 12" fill="none" xmlns="http://www.w3.org/2000/svg">
<path d="M4.16662 4.16667V2.45568C4.16662 1.77117 4.16662 1.42866 4.29984 1.16721C4.41701 0.937233 4.60385 0.750393 4.83382 0.633214C5.09527 0.5 5.43777 0.5 6.12228 0.5H9.54446C10.229 0.5 10.571 0.5 10.8325 0.633214C11.0624 0.750393 11.2496 0.937233 11.3668 1.16721C11.5 1.42866 11.5 1.77091 11.5 2.45542V5.87766C11.5 6.56217 11.5 6.90442 11.3668 7.16587C11.2496 7.39584 11.0623 7.58307 10.8323 7.70025C10.5711 7.83333 10.2294 7.83333 9.54622 7.83333H7.83325M4.16662 4.16667H2.45565C1.77115 4.16667 1.42865 4.16667 1.1672 4.29988C0.937228 4.41706 0.75039 4.6039 0.633213 4.83388C0.5 5.09532 0.5 5.43783 0.5 6.12234V9.54456C0.5 10.2291 0.5 10.5712 0.633213 10.8326C0.75039 11.0626 0.937228 11.2497 1.1672 11.3669C1.42839 11.5 1.77048 11.5 2.45364 11.5H5.87988C6.56305 11.5 6.90466 11.5 7.16585 11.3669C7.39582 11.2497 7.58299 11.0624 7.70016 10.8324C7.83325 10.5712 7.83325 10.2295 7.83325 9.54633V7.83333M4.16662 4.16667H5.87783C6.56234 4.16667 6.9044 4.16667 7.16585 4.29988C7.39582 4.41706 7.58299 4.6039 7.70016 4.83388C7.83325 5.09507 7.83325 5.43717 7.83325 6.12035L7.83325 7.83333" stroke="black" stroke-linecap="round" stroke-linejoin="round"/>
</svg>
