<svg width="14" height="14" viewBox="0 0 14 14" fill="none" xmlns="http://www.w3.org/2000/svg">
<path d="M9.84502 1V7.6M12.9286 5.68V2.92C12.9286 2.24794 12.9286 1.91191 12.7941 1.65521C12.6759 1.42942 12.4872 1.24584 12.2551 1.13079C11.9913 1 11.6459 1 10.9551 1H4.3674C3.46609 1 3.01543 1 2.65144 1.16046C2.33064 1.30188 2.05799 1.52945 1.86554 1.81643C1.64718 2.14204 1.57866 2.57538 1.44161 3.44207L1.11902 5.48207C0.938259 6.62519 0.847878 7.19674 1.02223 7.64147C1.17526 8.03182 1.46308 8.35822 1.83636 8.56472C2.26165 8.8 2.85604 8.8 4.04481 8.8H4.5413C4.88669 8.8 5.05939 8.8 5.19131 8.8654C5.30735 8.92292 5.4017 9.01471 5.46082 9.12761C5.52804 9.25595 5.52804 9.42397 5.52804 9.76V11.5205C5.52804 12.3376 6.20889 13 7.04875 13C7.24907 13 7.43061 12.8852 7.51197 12.7071L9.58458 8.17011C9.67885 7.96375 9.72598 7.86057 9.80049 7.78491C9.86635 7.71804 9.94722 7.6669 10.0368 7.63551C10.1381 7.6 10.2542 7.6 10.4863 7.6H10.9551C11.6459 7.6 11.9913 7.6 12.2551 7.46921C12.4872 7.35416 12.6759 7.17058 12.7941 6.94479C12.9286 6.68809 12.9286 6.35206 12.9286 5.68Z" stroke="black" stroke-width="1.3" stroke-linecap="round" stroke-linejoin="round"/>
</svg>
