<svg width="14" height="14" viewBox="0 0 14 14" fill="none" xmlns="http://www.w3.org/2000/svg">
<path d="M5.2 1V2.2M8.8 1V2.2M5.2 11.8V13M8.8 11.8V13M11.8 5.2H13M11.8 8.2H13M1 5.2H2.2M1 8.2H2.2M5.08 11.8H8.92C9.92809 11.8 10.4321 11.8 10.8172 11.6038C11.1559 11.4312 11.4312 11.1559 11.6038 10.8172C11.8 10.4321 11.8 9.92809 11.8 8.92V5.08C11.8 4.07191 11.8 3.56786 11.6038 3.18282C11.4312 2.84413 11.1559 2.56876 10.8172 2.39619C10.4321 2.2 9.92809 2.2 8.92 2.2H5.08C4.07191 2.2 3.56786 2.2 3.18282 2.39619C2.84413 2.56876 2.56876 2.84413 2.39619 3.18282C2.2 3.56786 2.2 4.07191 2.2 5.08V8.92C2.2 9.92809 2.2 10.4321 2.39619 10.8172C2.56876 11.1559 2.84413 11.4312 3.18282 11.6038C3.56786 11.8 4.07191 11.8 5.08 11.8ZM6.16 8.8H7.84C8.17603 8.8 8.34405 8.8 8.47239 8.7346C8.58529 8.67708 8.67708 8.58529 8.7346 8.47239C8.8 8.34405 8.8 8.17603 8.8 7.84V6.16C8.8 5.82397 8.8 5.65595 8.7346 5.52761C8.67708 5.41471 8.58529 5.32292 8.47239 5.2654C8.34405 5.2 8.17603 5.2 7.84 5.2H6.16C5.82397 5.2 5.65595 5.2 5.52761 5.2654C5.41471 5.32292 5.32292 5.41471 5.2654 5.52761C5.2 5.65595 5.2 5.82397 5.2 6.16V7.84C5.2 8.17603 5.2 8.34405 5.2654 8.47239C5.32292 8.58529 5.41471 8.67708 5.52761 8.7346C5.65595 8.8 5.82397 8.8 6.16 8.8Z" stroke="black" stroke-width="1.3" stroke-linecap="round" stroke-linejoin="round"/>
</svg>
