<svg width="20" height="18" viewBox="0 0 20 18" fill="none" xmlns="http://www.w3.org/2000/svg">
<path d="M13 17H4.2C3.0799 17 2.51984 17 2.09202 16.782C1.71569 16.5903 1.40973 16.2843 1.21799 15.908C1 15.4802 1 14.9201 1 13.8V4.2C1 3.0799 1 2.51984 1.21799 2.09202C1.40973 1.71569 1.71569 1.40973 2.09202 1.21799C2.51984 1 3.0799 1 4.2 1H5.67452C6.1637 1 6.40829 1 6.63846 1.05526C6.84254 1.10425 7.03763 1.18506 7.21657 1.29472C7.4184 1.4184 7.59136 1.59136 7.93726 1.93726L8.06274 2.06274C8.40865 2.40865 8.5816 2.5816 8.78343 2.70528C8.96237 2.81494 9.15746 2.89575 9.36154 2.94474C9.59171 3 9.8363 3 10.3255 3H11.8C12.9201 3 13.4802 3 13.908 3.21799C14.2843 3.40973 14.5903 3.71569 14.782 4.09202C15 4.51984 15 5.0799 15 6.2V6.5M7 12H13M17.7641 11.1195L16.6842 14.7191C16.4387 15.5374 16.3159 15.9465 16.073 16.2498C15.8586 16.5176 15.5789 16.7257 15.2608 16.8541C14.9005 16.9996 14.4734 16.9996 13.6191 16.9996H3.15047C2.42163 16.9996 2.05721 16.9996 1.81398 16.8476C1.60096 16.7144 1.44587 16.5059 1.37954 16.2636C1.3038 15.987 1.40852 15.6379 1.61796 14.9398L3.31584 9.28046C3.56132 8.46221 3.68406 8.05309 3.92696 7.74979C4.14139 7.48204 4.42108 7.27395 4.73915 7.1455C5.09946 7 5.5266 7 6.38087 7H14.6991C16.1567 7 16.8856 7 17.372 7.30409C17.7981 7.57041 18.1083 7.98732 18.2409 8.47191C18.3924 9.02523 18.183 9.72334 17.7641 11.1195Z" stroke="black" stroke-opacity="0.8" stroke-width="2" stroke-linecap="round"/>
</svg>
