<svg width="20" height="20" viewBox="0 0 20 20" fill="none" xmlns="http://www.w3.org/2000/svg">
<path d="M4.52153 15.1664C4.61342 14.8108 4.39956 14.4478 4.044 14.3559C3.73286 14.2756 3.4161 14.4295 3.28032 14.7074L3.23345 14.8334C3.13031 15.2324 3.00465 15.6297 2.86138 16.0287L2.71294 16.4281C2.63184 16.6393 2.66317 16.8775 2.79693 17.06C2.93072 17.2424 3.1483 17.3443 3.37407 17.3305L3.77935 17.3002C4.62731 17.2265 5.44054 17.0856 6.23443 16.8764C6.8467 17.1788 7.50427 17.4101 8.19439 17.558C8.55334 17.6348 8.90645 17.4062 8.98345 17.0473C9.06041 16.6882 8.83182 16.3342 8.47271 16.2572C7.81456 16.1162 7.19293 15.8862 6.6231 15.5815C6.50918 15.5206 6.38089 15.4946 6.25396 15.5053L6.12798 15.5277C5.5372 15.6955 4.93261 15.819 4.30571 15.9027C4.33682 15.8053 4.36937 15.7081 4.39849 15.6098L4.52153 15.1664Z" fill="black"/>
<path d="M15.7998 14.5365C15.5786 14.3039 15.2291 14.2666 14.9668 14.4301L14.8604 14.5131C13.9651 15.3633 12.8166 15.9809 11.5273 16.2572C11.1682 16.3342 10.9396 16.6882 11.0166 17.0473C11.0936 17.4062 11.4467 17.6348 11.8057 17.558C13.2388 17.2509 14.5314 16.5858 15.5713 15.6645L15.7754 15.477C16.0417 15.2241 16.0527 14.8028 15.7998 14.5365Z" fill="black"/>
<path d="M2.23828 7.58927C1.97668 8.34847 1.83496 9.15958 1.83496 10.0004C1.835 10.736 1.94324 11.4483 2.14551 12.1234L2.23828 12.4106C2.35793 12.7576 2.73588 12.9421 3.08301 12.8227C3.3867 12.718 3.56625 12.4154 3.52637 12.1088L3.49512 11.977C3.2808 11.3549 3.16508 10.6908 3.16504 10.0004C3.16504 9.30977 3.28072 8.64514 3.49512 8.02286C3.61476 7.67563 3.43024 7.2968 3.08301 7.17716C2.73596 7.05778 2.35799 7.24232 2.23828 7.58927Z" fill="black"/>
<path d="M16.917 12.8227C17.2641 12.9421 17.6421 12.7576 17.7617 12.4106C18.0233 11.6515 18.165 10.8411 18.165 10.0004C18.165 9.15958 18.0233 8.34847 17.7617 7.58927C17.642 7.24231 17.264 7.05778 16.917 7.17716C16.5698 7.2968 16.3852 7.67563 16.5049 8.02286C16.7193 8.64514 16.835 9.30977 16.835 10.0004C16.8349 10.6908 16.7192 11.3549 16.5049 11.977C16.3852 12.3242 16.5698 12.703 16.917 12.8227Z" fill="black"/>
<path d="M8.98339 2.95256C8.90631 2.59375 8.55321 2.36511 8.19433 2.44182C6.76125 2.74893 5.46854 3.41406 4.4287 4.33537L4.2246 4.52287C3.95828 4.77578 3.94728 5.19698 4.20019 5.4633C4.42145 5.69605 4.77087 5.73329 5.03319 5.56974L5.13964 5.48771C6.03495 4.63749 7.18336 4.01891 8.47265 3.7426C8.83176 3.66564 9.06035 3.31167 8.98339 2.95256Z" fill="black"/>
<path d="M15.5713 4.33537C14.5314 3.41406 13.2387 2.74893 11.8057 2.44182C11.4468 2.36511 11.0937 2.59375 11.0166 2.95256C10.9396 3.31167 11.1682 3.66564 11.5273 3.7426C12.7361 4.00164 13.8209 4.56096 14.6895 5.33049L14.8604 5.48771L14.9668 5.56974C15.2291 5.73328 15.5785 5.69605 15.7998 5.4633C16.0211 5.23027 16.0403 4.87904 15.8633 4.62541L15.7754 4.52287L15.5713 4.33537Z" fill="black"/>
</svg>
