<svg width="14" height="14" viewBox="0 0 14 14" fill="none" xmlns="http://www.w3.org/2000/svg">
<path d="M4.0049 13V6.4M0.928574 7.6V11.8C0.928574 12.4627 1.4795 13 2.1591 13H10.4198C11.3308 13 12.1056 12.3518 12.2441 11.4737L12.9067 7.2737C13.0787 6.18334 12.2136 5.2 11.0824 5.2H8.92701C8.58721 5.2 8.31175 4.93137 8.31175 4.6V2.4795C8.31175 1.6624 7.6325 1 6.7946 1C6.59475 1 6.41364 1.11478 6.33248 1.29287L4.16729 6.04368C4.06854 6.26036 3.8482 6.4 3.60505 6.4H2.1591C1.4795 6.4 0.928574 6.93726 0.928574 7.6Z" stroke="black" stroke-width="1.3" stroke-linecap="round" stroke-linejoin="round"/>
</svg>
