<svg width="14" height="14" viewBox="0 0 14 14" fill="none" xmlns="http://www.w3.org/2000/svg">
<path opacity="0.6" d="M4.55371 0.00683594C4.22868 0.0389373 3.92259 0.182228 3.68945 0.415039L0.419922 3.68066C0.153421 3.9468 0.00319411 4.30794 0.00292934 4.68457L-3.50121e-07 9.30566C-0.000263718 9.68231 0.1489 10.044 0.415039 10.3105L3.68066 13.5801C3.9468 13.8466 4.30794 13.9968 4.68457 13.9971L9.30566 14L9.44629 13.9932C9.72498 13.9656 9.98935 13.8561 10.2061 13.6787L10.3105 13.585L13.5801 10.3193C13.8466 10.0532 13.9968 9.69206 13.9971 9.31543L14 4.69434C14.0003 4.31769 13.8511 3.95597 13.585 3.68945L10.3193 0.419922C10.0865 0.186791 9.78104 0.0432956 9.45605 0.0107422L9.31543 0.00292969L4.69434 0L4.55371 0.00683594ZM9.31445 1.20312C9.37284 1.20317 9.42945 1.22626 9.4707 1.26758L12.7354 4.53809C12.7766 4.57937 12.7998 4.63503 12.7998 4.69336L12.7969 9.31445C12.7968 9.37284 12.7737 9.42945 12.7324 9.4707L9.46191 12.7354C9.42063 12.7766 9.36497 12.7998 9.30664 12.7998L4.68555 12.7969C4.62716 12.7968 4.57055 12.7737 4.5293 12.7324L1.26465 9.46191C1.22343 9.42063 1.20019 9.36497 1.20019 9.30664L1.20312 4.68555C1.20317 4.62716 1.22627 4.57055 1.26758 4.5293L4.53809 1.26465C4.57937 1.22343 4.63503 1.20019 4.69336 1.2002L9.31445 1.20312ZM6.36523 11.3252H7.86523V9.73926H6.36523V11.3252ZM6.44629 5.31738L6.70312 8.93457H7.52734L7.78418 5.31738V2.67383H6.44629V5.31738Z" fill="black" fill-opacity="0.8"/>
</svg>
