<svg width="14" height="14" viewBox="0 0 14 14" fill="none" xmlns="http://www.w3.org/2000/svg">
<path fill-rule="evenodd" clip-rule="evenodd" d="M0 2.8C0 1.2536 1.2536 0 2.8 0H3.5C5.0464 0 6.3 1.2536 6.3 2.8V3.5C6.3 5.0464 5.0464 6.3 3.5 6.3H2.8C1.2536 6.3 0 5.0464 0 3.5V2.8ZM2.8 1.4C2.0268 1.4 1.4 2.0268 1.4 2.8V3.5C1.4 4.2732 2.0268 4.9 2.8 4.9H3.5C4.2732 4.9 4.9 4.2732 4.9 3.5V2.8C4.9 2.0268 4.2732 1.4 3.5 1.4H2.8ZM7.7 2.8C7.7 1.2536 8.9536 0 10.5 0H11.2C12.7464 0 14 1.2536 14 2.8V3.5C14 5.0464 12.7464 6.3 11.2 6.3H10.5C8.9536 6.3 7.7 5.0464 7.7 3.5V2.8ZM10.5 1.4C9.7268 1.4 9.1 2.0268 9.1 2.8V3.5C9.1 4.2732 9.7268 4.9 10.5 4.9H11.2C11.9732 4.9 12.6 4.2732 12.6 3.5V2.8C12.6 2.0268 11.9732 1.4 11.2 1.4H10.5ZM0 10.5C0 8.9536 1.2536 7.7 2.8 7.7H3.5C5.0464 7.7 6.3 8.9536 6.3 10.5V11.2C6.3 12.7464 5.0464 14 3.5 14H2.8C1.2536 14 0 12.7464 0 11.2V10.5ZM2.8 9.1C2.0268 9.1 1.4 9.7268 1.4 10.5V11.2C1.4 11.9732 2.0268 12.6 2.8 12.6H3.5C4.2732 12.6 4.9 11.9732 4.9 11.2V10.5C4.9 9.7268 4.2732 9.1 3.5 9.1H2.8ZM7.7 10.5C7.7 8.9536 8.9536 7.7 10.5 7.7H11.2C12.7464 7.7 14 8.9536 14 10.5V11.2C14 12.7464 12.7464 14 11.2 14H10.5C8.9536 14 7.7 12.7464 7.7 11.2V10.5ZM10.5 9.1C9.7268 9.1 9.1 9.7268 9.1 10.5V11.2C9.1 11.9732 9.7268 12.6 10.5 12.6H11.2C11.9732 12.6 12.6 11.9732 12.6 11.2V10.5C12.6 9.7268 11.9732 9.1 11.2 9.1H10.5Z" fill="#2A273C"/>
</svg>
