<svg width="17" height="17" viewBox="0 0 17 17" fill="none" xmlns="http://www.w3.org/2000/svg">
<path d="M9.375 15.4993C9.29197 15.5 9.1988 15.5 9.0924 15.5H4.2973C3.31912 15.5 2.8293 15.5 2.45532 15.3094C2.12604 15.1417 1.85852 14.8737 1.69074 14.5444C1.5 14.1701 1.5 13.6803 1.5 12.7002V4.30017C1.5 3.32008 1.5 2.82967 1.69074 2.45532C1.85852 2.12604 2.12604 1.85852 2.45532 1.69074C2.82967 1.5 3.32008 1.5 4.30017 1.5H12.7002C13.6803 1.5 14.1696 1.5 14.544 1.69074C14.8733 1.85852 15.1417 2.12604 15.3094 2.45532C15.5 2.8293 15.5 3.31912 15.5 4.2973V9.09037C15.5 9.19765 15.5 9.29146 15.4992 9.375M9.375 15.4993C9.62495 15.497 9.78304 15.488 9.93399 15.4517C10.1126 15.4089 10.2831 15.3379 10.4397 15.2419C10.6163 15.1337 10.7676 14.9828 11.0703 14.6801L14.6801 11.0703C14.9828 10.7676 15.1333 10.6163 15.2415 10.4397C15.3374 10.2831 15.4084 10.1121 15.4513 9.93356C15.4875 9.78264 15.4968 9.62477 15.4992 9.375M9.375 15.4993V10.7751C9.375 10.285 9.375 10.0398 9.47037 9.85266C9.55426 9.68802 9.68802 9.55426 9.85266 9.47037C10.0398 9.375 10.2846 9.375 10.7747 9.375H15.4992" stroke="black" stroke-width="1.2" stroke-linecap="round" stroke-linejoin="round"/>
</svg>
