<svg width="11" height="12" viewBox="0 0 11 12" fill="none" xmlns="http://www.w3.org/2000/svg">
<path opacity="0.6" d="M6.83952 8.33333H9.75618V11.25M4.50618 3.66667H1.58952V0.75M9.99976 4.25199C9.67269 3.44247 9.12509 2.74094 8.41919 2.22713C7.71329 1.71333 6.87753 1.40772 6.00667 1.3453C5.13582 1.28287 4.26472 1.46598 3.49276 1.87386C2.72079 2.28173 2.07883 2.89815 1.63965 3.65274M1.3457 7.74829C1.67277 8.55781 2.22037 9.25934 2.92627 9.77314C3.63217 10.287 4.46878 10.5922 5.33964 10.6546C6.2105 10.717 7.08088 10.5339 7.85284 10.1261C8.62481 9.71819 9.26633 9.10188 9.70551 8.34729" stroke="black" stroke-width="1.2" stroke-linecap="round" stroke-linejoin="round"/>
</svg>
