<svg width="14" height="14" viewBox="0 0 14 14" fill="none" xmlns="http://www.w3.org/2000/svg">
<path d="M1.91414 10.2396L1.42171 9.89679L1.42171 9.89679L1.91414 10.2396ZM2.66354 7.92095L2.06354 7.91422V7.92095H2.66354ZM2.67927 6.51908L3.27927 6.52581V6.51908H2.67927ZM12.0922 10.2509L12.5912 9.91772L12.5912 9.91772L12.0922 10.2509ZM11.371 7.92095L10.771 7.91387V7.92095H11.371ZM11.3867 6.58854L11.9867 6.59563V6.58854H11.3867ZM5.28281 12.4C4.95143 12.4 4.68281 12.6686 4.68281 13C4.68281 13.3314 4.95143 13.6 5.28281 13.6V13V12.4ZM8.7195 13.6C9.05087 13.6 9.3195 13.3314 9.3195 13C9.3195 12.6686 9.05087 12.4 8.7195 12.4V13V13.6ZM0.941377 3.03388C0.820452 3.3424 0.972527 3.69053 1.28105 3.81146C1.58956 3.93238 1.9377 3.78031 2.05862 3.47179L1.5 3.25283L0.941377 3.03388ZM3.72562 1.52552C4.01586 1.36561 4.12151 1.00069 3.9616 0.71046C3.80169 0.420226 3.43678 0.314576 3.14654 0.474484L3.43608 1L3.72562 1.52552ZM10.8455 0.483692C10.557 0.320672 10.1909 0.422392 10.0279 0.71089C9.8649 0.999388 9.96662 1.36542 10.2551 1.52844L10.5503 1.00606L10.8455 0.483692ZM11.9391 3.45976C12.0568 3.76953 12.4033 3.92525 12.7131 3.80758C13.0228 3.6899 13.1786 3.34339 13.0609 3.03361L12.5 3.24668L11.9391 3.45976ZM1.91414 10.2396L2.40657 10.5824C2.83775 9.96303 3.26354 9.04213 3.26354 7.92095H2.66354H2.06354C2.06354 8.73471 1.75321 9.42061 1.42171 9.89679L1.91414 10.2396ZM2.66354 7.92095L3.2635 7.92768L3.27923 6.52581L2.67927 6.51908L2.07931 6.51235L2.06358 7.91422L2.66354 7.92095ZM12.0922 10.2509L12.5912 9.91772C12.2734 9.44167 11.971 8.74803 11.971 7.92095H11.371H10.771C10.771 9.0421 11.1793 9.96403 11.5931 10.584L12.0922 10.2509ZM11.371 7.92095L11.9709 7.92803L11.9867 6.59563L11.3867 6.58854L10.7867 6.58146L10.771 7.91387L11.371 7.92095ZM11.3867 6.58854H11.9867C11.9867 3.66458 9.80281 1.20304 7.00115 1.20304V1.80304V2.40304C9.04363 2.40304 10.7867 4.22659 10.7867 6.58854H11.3867ZM11.8297 10.9006V11.5006C12.308 11.5006 12.5794 11.1398 12.6798 10.8825C12.7834 10.6169 12.8055 10.2388 12.5912 9.91772L12.0922 10.2509L11.5931 10.584C11.5629 10.5387 11.5572 10.5002 11.5564 10.4835C11.5555 10.4672 11.558 10.4561 11.5618 10.4464C11.5651 10.4379 11.5777 10.4093 11.6158 10.3766C11.6584 10.3401 11.7332 10.3006 11.8297 10.3006V10.9006ZM2.67927 6.51908H3.27927C3.27927 4.19549 4.99383 2.40304 7.00115 2.40304V1.80304V1.20304C4.23465 1.20304 2.07927 3.63348 2.07927 6.51908H2.67927ZM2.17322 10.9006V10.3006C2.2718 10.3006 2.34742 10.3417 2.38956 10.3784C2.42705 10.4112 2.43869 10.4392 2.44135 10.4463C2.44454 10.4547 2.44689 10.4647 2.44588 10.4805C2.44486 10.4966 2.43876 10.5362 2.40657 10.5824L1.91414 10.2396L1.42171 9.89679C1.19739 10.219 1.21783 10.6035 1.319 10.8709C1.41663 11.129 1.68721 11.5006 2.17322 11.5006V10.9006ZM11.8297 10.9006V10.3006H2.17322V10.9006V11.5006H11.8297V10.9006ZM5.28281 13V13.6H8.7195V13V12.4H5.28281V13ZM1.5 3.25283L2.05862 3.47179C2.38823 2.63085 2.97388 1.9397 3.72562 1.52552L3.43608 1L3.14654 0.474484C2.12943 1.03488 1.36466 1.95394 0.941377 3.03388L1.5 3.25283ZM10.5503 1.00606L10.2551 1.52844C11.0283 1.96535 11.6289 2.64322 11.9391 3.45976L12.5 3.24668L13.0609 3.03361C12.6456 1.94028 11.8484 1.0504 10.8455 0.483692L10.5503 1.00606Z" fill="black" fill-opacity="0.6"/>
</svg>
