<svg width="12" height="13" viewBox="0 0 12 13" fill="none" xmlns="http://www.w3.org/2000/svg">
<path d="M0.625 8.76953C0.96981 8.76996 1.25 9.04962 1.25 9.39453C1.25021 10.4192 2.08063 11.25 3.10547 11.25C3.4505 11.2502 3.73047 11.5299 3.73047 11.875C3.73039 12.22 3.45046 12.4998 3.10547 12.5C1.39044 12.5 0.000208562 11.1097 0 9.39453C2.55016e-08 9.04935 0.279822 8.76953 0.625 8.76953ZM11.375 8.76953C11.7201 8.76959 12 9.04939 12 9.39453C11.9998 11.1096 10.6095 12.4999 8.89453 12.5C8.5494 12.5 8.26961 12.2201 8.26953 11.875C8.26953 11.5298 8.54935 11.25 8.89453 11.25C9.91931 11.2499 10.7498 10.4191 10.75 9.39453C10.75 9.04952 11.03 8.76979 11.375 8.76953ZM3.10547 0.5C3.45034 0.500185 3.73022 0.780147 3.73047 1.125C3.73047 1.47006 3.45049 1.74981 3.10547 1.75C2.08074 1.75 1.25038 2.58099 1.25 3.60547C1.25 3.95037 0.969796 4.23002 0.625 4.23047C0.279822 4.23047 0 3.95065 0 3.60547C0.000382734 1.89048 1.39054 0.5 3.10547 0.5ZM8.89453 0.5C10.6093 0.500177 11.9996 1.89058 12 3.60547C12 3.95054 11.72 4.23029 11.375 4.23047C11.03 4.23021 10.75 3.95048 10.75 3.60547C10.7496 2.5811 9.91911 1.75018 8.89453 1.75C8.54935 1.75 8.26953 1.47018 8.26953 1.125C8.26978 0.780033 8.54951 0.5 8.89453 0.5Z" fill="black" fill-opacity="0.8"/>
</svg>
