<svg width="12" height="11" viewBox="0 0 12 11" fill="none" xmlns="http://www.w3.org/2000/svg">
<path d="M6 1C6.94811 1 7.3641 1.00181 7.7041 1.05566C9.62947 1.36069 11.1393 2.87053 11.4443 4.7959C11.4982 5.1359 11.5 5.55189 11.5 6.5V7.64258C11.5 8.48198 11.493 8.77481 11.416 8.99512C11.2652 9.42599 10.926 9.76525 10.4951 9.91602C10.2748 9.99301 9.98198 10 9.14258 10H2.85742C2.01802 10 1.72519 9.99301 1.50488 9.91602C1.07401 9.76525 0.734753 9.42599 0.583984 8.99512C0.50699 8.77481 0.5 8.48198 0.5 7.64258V6.5C0.5 5.55189 0.501813 5.1359 0.555664 4.7959C0.860693 2.87053 2.37053 1.36069 4.2959 1.05566C4.6359 1.00181 5.05189 1 6 1Z" stroke="black" stroke-opacity="0.8"/>
</svg>
