<svg width="14" height="14" viewBox="0 0 14 14" fill="none" xmlns="http://www.w3.org/2000/svg">
<path d="M5.25781 0C5.59931 0 5.87671 0.276721 5.87695 0.618164V13.3818C5.87671 13.7233 5.59931 14 5.25781 14C4.91641 13.9999 4.63988 13.7232 4.63965 13.3818V0.618164C4.63988 0.276792 4.91641 0.000115887 5.25781 0ZM2.78418 2.7998C3.12563 2.80003 3.40234 3.07744 3.40234 3.41895V10.5811C3.40234 10.9226 3.12563 11.2 2.78418 11.2002C2.44253 11.2002 2.16504 10.9227 2.16504 10.5811V3.41895C2.16504 3.0773 2.44253 2.7998 2.78418 2.7998ZM10.207 2.7998C10.5487 2.7998 10.8262 3.0773 10.8262 3.41895V10.5811C10.8262 10.9227 10.5487 11.2002 10.207 11.2002C9.8655 11.2001 9.58886 10.9226 9.58886 10.5811V3.41895C9.58886 3.07736 9.8655 2.7999 10.207 2.7998ZM7.73242 4.2002C8.07393 4.20026 8.35045 4.47687 8.35058 4.81836V9.18164C8.35045 9.52313 8.07393 9.79974 7.73242 9.7998C7.39086 9.7998 7.11341 9.52317 7.11328 9.18164V4.81836C7.11341 4.47683 7.39085 4.2002 7.73242 4.2002ZM0.618164 5.59961C0.959812 5.59961 1.2373 5.8771 1.2373 6.21875V7.78125C1.2373 8.1229 0.959812 8.40039 0.618164 8.40039C0.27672 8.40015 0 8.12275 0 7.78125V6.21875C0 5.87725 0.27672 5.59985 0.618164 5.59961ZM12.6816 5.59961C13.0232 5.5997 13.2998 5.87716 13.2998 6.21875V7.78125C13.2998 8.12284 13.0232 8.4003 12.6816 8.40039C12.34 8.40039 12.0625 8.1229 12.0625 7.78125V6.21875C12.0625 5.8771 12.34 5.59961 12.6816 5.59961Z" fill="black" fill-opacity="0.8"/>
</svg>
